/* XPM */
static char *result[] = {
/* columns rows colors chars-per-pixel */
"40 40 216 2 ",
"   c #030304",
".  c #0B0101",
"X  c #0C0506",
"o  c #020B01",
"O  c #010B0D",
"+  c #0B0B0D",
"@  c #130101",
"#  c #1B0100",
"$  c #150B06",
"%  c #021202",
"&  c #031B07",
"*  c #010213",
"=  c #05041B",
"-  c #150015",
";  c #031114",
":  c #111113",
">  c #17171A",
",  c #1C1618",
"<  c #250000",
"1  c #2C0000",
"2  c #250009",
"3  c #340000",
"4  c #390000",
"5  c #221806",
"6  c #30031E",
"7  c #222D00",
"8  c #020825",
"9  c #0D0E2A",
"0  c #1C1D20",
"q  c #020736",
"w  c #28003B",
"e  c #1C2223",
"r  c #222225",
"t  c #28292C",
"y  c #2E2F32",
"u  c #333437",
"i  c #333438",
"p  c #393A3E",
"a  c #480E10",
"s  c #6F1700",
"d  c #540025",
"f  c #771929",
"g  c #613326",
"h  c #693734",
"j  c #72501B",
"k  c #754E3F",
"l  c #55722F",
"z  c #0E1645",
"x  c #021568",
"c  c #092579",
"v  c #5E206B",
"b  c #3F4044",
"n  c #404145",
"m  c #454549",
"M  c #494A4E",
"N  c #574445",
"B  c #4E4F53",
"V  c #505155",
"C  c #535458",
"Z  c #595A5E",
"A  c #7D5546",
"S  c #794665",
"D  c #5F6064",
"F  c #646569",
"G  c #6A6A6E",
"H  c #6F6F73",
"J  c #747679",
"K  c #8C0007",
"L  c #9D0304",
"P  c #9B0814",
"I  c #8F141A",
"U  c #A60403",
"Y  c #B70807",
"T  c #B7110C",
"R  c #AB1212",
"E  c #BB1617",
"W  c #942015",
"Q  c #8A0D2F",
"!  c #A80D21",
"~  c #AA1628",
"^  c #B90E30",
"/  c #942F34",
"(  c #B02E2D",
")  c #C50307",
"_  c #CB0E11",
"`  c #C71517",
"'  c #D11214",
"]  c #FF1412",
"[  c #C7290C",
"{  c #D30632",
"}  c #C81631",
"|  c #E31E2F",
" . c #875316",
".. c #BC5512",
"X. c #965728",
"o. c #8D4F33",
"O. c #965C3C",
"+. c #AA5937",
"@. c #B35136",
"#. c #A96E2D",
"$. c #A7683A",
"%. c #B56337",
"&. c #B77433",
"*. c #C47238",
"=. c #A2025C",
"-. c #DF0051",
";. c #EB224F",
":. c #99544D",
">. c #AA5949",
",. c #BB5945",
"<. c #A95C57",
"1. c #B55D51",
"2. c #94694B",
"3. c #956D57",
"4. c #907557",
"5. c #B66A49",
"6. c #AC7346",
"7. c #BC7445",
"8. c #AD6957",
"9. c #B66855",
"0. c #AC5864",
"q. c #99746A",
"w. c #A56667",
"e. c #AC7568",
"r. c #C95D46",
"t. c #CD6B52",
"y. c #C17A66",
"u. c #CF726D",
"i. c #AE814B",
"p. c #AE886E",
"a. c #FFB85B",
"s. c #D5DE5F",
"d. c #F3CF5A",
"f. c #EBE85D",
"g. c #D7D378",
"h. c #F8CB6F",
"j. c #EDD869",
"k. c #FED669",
"l. c #F2DC6F",
"z. c #EACD71",
"x. c #ECDB73",
"c. c #EAD97A",
"v. c #F2DB74",
"b. c #F2DB7B",
"n. c #F7D979",
"m. c #D2E17A",
"M. c #F6E56B",
"N. c #FEE87B",
"B. c #063398",
"V. c #273191",
"C. c #1519B7",
"Z. c #0022A9",
"A. c #012AAB",
"S. c #0637A6",
"D. c #172DB2",
"F. c #0735B6",
"G. c #252CB1",
"H. c #154AA4",
"J. c #0247B5",
"K. c #2A4CA3",
"L. c #515690",
"P. c #7B7C80",
"I. c #042BC7",
"U. c #102CC9",
"Y. c #1536C4",
"T. c #1738D6",
"R. c #2235D5",
"E. c #1D2CE7",
"W. c #1B3EE8",
"Q. c #2F37F1",
"!. c #0D45CA",
"~. c #1B4ADC",
"^. c #0745E8",
"/. c #124BF0",
"(. c #1A48F9",
"). c #2241E6",
"_. c #2345F9",
"`. c #3254F0",
"'. c #2164F0",
"]. c #4355FD",
"[. c #808185",
"{. c #848489",
"}. c #8A8C8F",
"|. c #929396",
" X c #989A9D",
".X c #9FA0A4",
"XX c #A7A8AC",
"oX c #B2B2B6",
"OX c #B9BABE",
"+X c #D3D789",
"@X c #ECD988",
"#X c #F5D884",
"$X c #FCDC84",
"%X c #F1CD90",
"&X c #E9DC95",
"*X c #F2DB97",
"=X c #F7E485",
"-X c #F7E698",
";X c #D2D7A3",
":X c #EBDAAA",
">X c #E9DEB7",
",X c #D8EFA5",
"<X c #EBE5A9",
"1X c #EEECAF",
"2X c #FAE5A7",
"3X c #F4E9A3",
"4X c #FBEBA5",
"5X c #F7E7A9",
"6X c #F4E9AD",
"7X c #FAEAAC",
"8X c #FAE5B7",
"9X c #FAEAB4",
"0X c #FEF8B5",
"qX c #C4C5C8",
"wX c #DBDCDF",
"eX c #F3EFCD",
/* pixels */
"P.}.G }.oXb + > b : t C 0 b > C  XOXP.C H B p t J {.[.: J [.}.F J B r H + : r p ",
"B OXJ H m : }.m : + .Xb 0 XXqXG M }. X@ # XXwXOX{.B + i m G D > p + + : :   : m ",
"Z b [.b r m F 0 > p > C qX}.|.wX}.Z + _ [ # G F D |.0     : D }.i       + F m J ",
"t 0 p r P.qXwX}.r M F  X[.C M C P.2 ] ' _ ~ 4 J  XOXG     + M m r 0 + m i + r Z ",
"p r .X|.: C P.P.b r y M H {.Z 6 9 - -.;.^ K < o 9 = .X[.r + : b D XXp H C t : p ",
" Xr t r t y y P.F V : + 0 & w !./.'.z T T z x Y.A.c 8 0 b y m P.[.J i   C  Xy m ",
"[.|.J J P.|.p B XXqXy b b /.W.Q.(.!.K.q . I.~.F.I.Y.Z.V.8 {.|.Z 0 >   B J wXoXG ",
"C J .X.X|. X}.F P.F Z 8 L.`././._.Q.`./.I.B.G.C.U.!.Z.Y.U.: {.  r i Z qX|.p P.> ",
"F > r D G D }.B r H 8 `./.(.(.(.(._.~.F.Z.F.S.D.D.U.I.A.B.V.q m J |.|.D XXXX+ t ",
">     + t V Z M : 0 z G.)._.(.W._.).W.U.D.C.U.F.A.G.G.C.E.x ; m > u M y C }.b p ",
"    t t  Xm M i i N s [ Y R.).).).W.T.D.D.T.A.J.J.J.S.v I =.Q 2 XX|.y : : C t y ",
"H t : F }.P.> H : a W ^ { ! ~ ~ ! ! P P P U E U L E R K / -.K 3 OXwXG  XP.{.oXb ",
"qX|.D m  XP.+ 0 ; X - - 9 _ ` ` ` E Y T E T _ ' ) ) | / 3 o 7 o J H D oX|.y p > ",
"H .XqX}.J }.b + @ @Xn.f.s.. . .           q     ; ; o 5 a.+Xm.+X. D O r >   : p ",
"D C P.J J H p .X@ =X#XM.c.h.l.v.l.l.v.v.l.n.@X@Xc.k.=X4X;X*Xh.#X$     y D + + > ",
"p m C H r y oX{.* 3X:X4XeXb.#Xb.b.#Xb.#Xb.d.M.f.v.&X@Xz.k.c.x.g.. P.m D XXt t }.",
"H b 0 C B B C C   >X0X2X*X5X5X5X5X5X5X5X5X-X*Xc.M.x.j.n.#X$Xn.&X. .XJ [.Z G }. X",
"  + + : r P.H V $ >X&X5XeX5X5X5X5X5X5X5X3X3X-X-X=X#Xb.b.#Xh.x.%X, F p H p V V B ",
"      i [.t 0 D oX5 <X-X*X2X5X5X5X5X5X5X5X4X3X5X4X-X=Xb.b.M.z.. C F B {.P.p J J ",
"  > y P.Z b r J J   8X5X0X2X5X5X5X5X5X5X5X3X3X6X9X5X&Xc.x.N.@X. G qX.XJ H F H D ",
"D B D m B Z : H [.$ eXeX@X5X5X5X5X5X5X5X5X3X5X9X8X2X@Xc.x.z.:X. M H y b t m F |.",
"qXP.G Z |.oXp p 0 B @ ;X0X5X5X5X5X5X5X5X5X6X5X5X7X-X@Xc.v.g.5 }.G V i  X.XD   b ",
"P.{.p Z M }.F > B .X$ eX7X5X5X5X5X5X5X5X5X9X9X2X-X$Xb.v.b.6X.  X{.p H G }.i t }.",
"C .X XB   H wXu B H V . 9X5X5X5X5X5X5X5X5X8X2X-X=Xv.j.v.$X  p {.M b J B H }.{.i ",
"|.H P.J J [.XXb M H H n + =X-X-X6X1X<X7X3X9X,X,X$Xn.c.%X5 D |.B C i [.C b Z + > ",
"D .XH + y H H {.F |.F t , *   eX1X0X=XN.k.a.=X-X%X@X. @ > G  XXXXXM F Z C P.H P.",
"r >  X Xr P.qXJ [.qX{.C . p.k @ @ . >X&Xg.*X<X@ # $ 3.h 0 i H P.Z > D H B H P.P.",
"V > p wXy Z XX|.J t |.XX$ >.o.1 i.4.@ @ 9 . . 8.q.. y.@.X t B : + r y qX|.m J H ",
"XXH + D y > 0 B [.G Z G . j 2.3 w.<.8.7.#.&.@.r.8.@ 3.:.o C Z t : Z p J [.[.y 0 ",
"V M + r m     0 qXoX{.. q.S 1 9.r.&.*.%.+.9.y.@.1.p.< y.j > qXXX Xb t : p [.y : ",
"C B y   : 0 m   r   p $ G 6.< p.>.1.5.6.i.w.3.5.@.o.# o.$.  J XXP.>   r M P.t F ",
" XJ m y M B i B y   : . #   X 3.9.>.r.r.,.r.&.#.t.A   = .   }.XXt + 0 XXXX.X.XJ ",
"0 0 i  XF b + XXB t % 1 ~ ^   0.u.@.r.6.$.2.%.i.j :.o _ ( < @ Z B b + B }.M b t ",
"H t :   + y t }.|.F 2 ( { ) # X.&.&.@.@.r.7.( o.g <.- ] ] / < +  XG > M M + + > ",
"XXH H p t i b : B : a ~ } I $ e.e.:.t.6.%.6.+.o.A :.. ^ U f < i y }..XJ [.G C m ",
"P.b |.: b F y   0 Z P.. 2 . i.O.r.t.,.>.3.h 5.j  . .l # % 1 F   }.qXG B |.}.Z oX",
"r F wXp |.wX|.{.B b Z b e w 2 8.*...*.o.A 2./ o.<.A . = H n C H : F M Z i M m J ",
"b F P.> p H P.p m G H b t > # & o ;   .   % O * * ;   y }.r + {.i C > i : t : t ",
"Z P.B M i r |.Z p M }.F }.V - H.^.(.`.E.I.C.R.W.].H.8 + H m r : 0 0 H .Xr   + + ",
"}.B V wX.XP.P.Z + > C |.{.= d X ; . o   %     * - ; <   J OXb +   + F [.F [.[.M "
};
