/* XPM */
static char *f5e32c4b5e72487cc9e2e3052ee3c65aCS6hFiYQLIJGPIIz[] = {
/* columns rows colors chars-per-pixel */
"40 40 218 2 ",
"   c #030305",
".  c #0B0B0D",
"X  c #0E0E10",
"o  c #111113",
"O  c #17171A",
"+  c #1C1D20",
"@  c #222225",
"#  c #28292C",
"$  c #2E2F32",
"%  c #333438",
"&  c #393A3E",
"*  c #48522C",
"=  c #4E583B",
"-  c #565C3B",
";  c #5B6437",
":  c #797B3A",
">  c #0D1C6C",
",  c #3F4044",
"<  c #454549",
"1  c #494A4E",
"2  c #495443",
"3  c #4A5848",
"4  c #545544",
"5  c #535D4A",
"6  c #575D48",
"7  c #4E4F53",
"8  c #4E5756",
"9  c #4A5259",
"0  c #525B55",
"q  c #535458",
"w  c #565A5C",
"e  c #595A5E",
"r  c #4D694F",
"t  c #5B6344",
"y  c #57624A",
"u  c #5C6554",
"i  c #5B6953",
"p  c #55625A",
"a  c #5C635A",
"s  c #596A58",
"d  c #577156",
"f  c #656C46",
"g  c #697B49",
"h  c #767849",
"j  c #606B56",
"k  c #63695B",
"l  c #696E5A",
"z  c #6D745A",
"x  c #737C5C",
"c  c #7B7D5E",
"v  c #4F5F6F",
"b  c #5A5D65",
"n  c #5F6064",
"m  c #5D676B",
"M  c #59666C",
"N  c #586878",
"B  c #636D67",
"V  c #646569",
"C  c #6A6A6E",
"Z  c #6A7568",
"A  c #757966",
"S  c #606A73",
"D  c #6F6F73",
"F  c #687776",
"G  c #6C7474",
"H  c #6B7E7D",
"J  c #747874",
"K  c #747679",
"L  c #728452",
"P  c #798369",
"I  c #718971",
"U  c #7A8977",
"Y  c #8C8D52",
"T  c #A19B5D",
"R  c #848B66",
"E  c #8E9366",
"W  c #939368",
"Q  c #8B9578",
"!  c #959777",
"~  c #9B9D76",
"^  c #99A77D",
"/  c #A9A667",
"(  c #A7A67D",
")  c #B4AB77",
"_  c #1B2981",
"`  c #3D4E96",
"'  c #3C4AA2",
"]  c #757C84",
"[  c #7B7C80",
"{  c #4A58B0",
"}  c #6A7BC3",
"|  c #6D8182",
" . c #748484",
".. c #778886",
"X. c #7D9597",
"o. c #808185",
"O. c #848489",
"+. c #8A8C8F",
"@. c #8C9589",
"#. c #818F90",
"$. c #8D9596",
"%. c #899997",
"&. c #929396",
"*. c #9A9994",
"=. c #929D99",
"-. c #989A9D",
";. c #A69F8D",
":. c #99A089",
">. c #8DA394",
",. c #98A899",
"<. c #A4AA85",
"1. c #B8AC82",
"2. c #B4B587",
"3. c #A1AB9B",
"4. c #ABA998",
"5. c #B0AF93",
"6. c #A8B39A",
"7. c #B4B493",
"8. c #B8BB9A",
"9. c #9991A0",
"0. c #9293B2",
"q. c #A696A7",
"w. c #B39CAE",
"e. c #88A4A6",
"r. c #9EA1A4",
"t. c #99A6A8",
"y. c #96A9AD",
"u. c #9AADAD",
"i. c #9CB1A6",
"p. c #98B5B7",
"a. c #93B6B9",
"s. c #A8ABA4",
"d. c #A6A8AC",
"f. c #ABB4A4",
"g. c #A9BAA6",
"h. c #A5B2AD",
"j. c #ABB6AD",
"k. c #B4B8A7",
"l. c #BABEA3",
"z. c #B6BBAD",
"x. c #BABBAB",
"c. c #A8AFB7",
"v. c #A4B3B4",
"b. c #AAB3B2",
"n. c #A8B7B6",
"m. c #ABB4BA",
"M. c #B2B3B6",
"N. c #B4B8B9",
"B. c #BABBBE",
"V. c #C1BDAD",
"C. c #C0BBB8",
"Z. c #B6C19F",
"A. c #A9C7A5",
"S. c #BBC1AB",
"D. c #ACC0BF",
"F. c #BDC6B6",
"G. c #C5CD94",
"H. c #C3C899",
"J. c #C6C9A8",
"K. c #C7C5B6",
"L. c #CAD4B7",
"P. c #D5D8BC",
"I. c #E5DFBD",
"U. c #9CBFC1",
"Y. c #A1A2C1",
"T. c #ACB6C3",
"R. c #B4BAC5",
"E. c #BAC2C1",
"W. c #B9C6C7",
"Q. c #B6C1CA",
"!. c #B0CBCD",
"~. c #C4C9C6",
"^. c #CACCC6",
"/. c #C4C5C8",
"(. c #CAD2C3",
"). c #C8D6CB",
"_. c #D3D3C4",
"`. c #D0DAC2",
"'. c #D5D2CE",
"]. c #D7D8C8",
"[. c #DADCCC",
"{. c #D9C7D8",
"}. c #C4DAD8",
"|. c #D8D0DF",
" X c #DBDCDF",
".X c #E2D9C6",
"XX c #E0DBD8",
"oX c #D7F0CD",
"OX c #DDE4D5",
"+X c #E5E6C6",
"@X c #F8EBCD",
"#X c #FAF4CA",
"$X c #E4E3D2",
"%X c #E8E6D5",
"&X c #ECEAD6",
"*X c #EBEBDB",
"=X c #F6EBD4",
"-X c #F4EBD9",
";X c #F7EBD9",
":X c #EDF3D2",
">X c #EDF2DC",
",X c #E4F8D8",
"<X c #F3F5D4",
"1X c #FBF1D3",
"2X c #F5F2DD",
"3X c #FCF3DB",
"4X c #F8FADA",
"5X c #F6EDE3",
"6X c #FEEDE5",
"7X c #F4EFEC",
"8X c #EBF7E9",
"9X c #F2F4E4",
"0X c #FAF3E3",
"qX c #FBFBE4",
"wX c #FEF3E9",
"eX c #F8F9E8",
"rX c #E9FAFB",
"tX c #FAF9F2",
/* pixels */
"[ +.C +.M., . O , o # q + , O q -.B.[ q D 1 & # K O.o.o K o.+.V K 7 @ C . o @ & ",
"7 B.K D < o +.< o . r., + d./.C 1 +.-.< /.d. XB.O.7 . % < C n O & . . o o   o < ",
"e , o., @ < V + O & O q /.+.&. X+.e & , @ e C n n &.+     o n +.%       . V < K ",
"# + & @ [ /. X+.@ 1 V -.o.q 1 q [ O.&.1 D 1 + [ -.B.C     . 1 < @ + . < % . @ e ",
"& @ r.&.o q [ [ , @ $ 1 D O.e V & V &.o./.+.. C [ +.r.O.@ . o , n d.& D q # o & ",
"-.@ # @ # $ $ [ V q o . + @ # < 7 1 O [ K D 1 7 o.D &.D , $ < [ o.K %   q -.$ < ",
"o.&.K K [ &.& 7 d./.$ , V &.D D 1 , 1 7 7 C -.D # < -.K O.O.&.e + O   7 K  XM.C ",
"q K r.r.&.-.+.V [ V e r.M.r.-.d.7 + . , D 1 C -.%   % n /.+.O.  @ % e /.&.& [ O ",
"V O @ n C n +.7 @ G . n 7 7 V [ r.q e & O   % % < e . o q %   , K &.&.n d.d.. # ",
"O     . # q e 1 o + O   o .   7 V C % D 7     o q M.e &.B.&.$ , + % < $ q +., & ",
"    # # -.< 1 % %  XO.o   % @ o V [ D r.V o . q e &.7 C o.1 + D d.&.$ o o q # $ ",
"D XXM.4XqX8XrXrXrX0X2X#X#X9XeX:X`.`.L.P.L.F.L.L.F.z.F.j.j.i.,.,.g.d.d.h.r.^.M., ",
"/.'.4.P.:XU s N v P.0X#X#X9X*XQ z z ^ Z.7.6.l.g.g.f.f.s.,.%.@.>.i.$.r.r.=.~.& O ",
"D {.q.K.*X` > _ > C.tX1X=X9X$X0 J %.t.v.n.%.y.b.h.h.M.@.Z O.&.-.c.$.r.d.=.~.o & ",
"n {.w.x._.} ` { ' ~.7X@X.X*X(.0 a  .u.u.n.y.y.h.=.G 0 4 u C D -.M.b.d.b.$.M.. O ",
"& `.6.z._.$X`.[._.%X0X<X3XOXF.Y.0.9 ] T.m.m.c.B 8 t x R R P = p j.G G d.&.^.# +.",
"D `.6.k.(.eX>X$XOX5X5X3X<X(.f.0.Y.9 ] R.T.Q.S 0  .Q P x = y 4 p j.m m r.$.~.+.-.",
"  }.y.k.].qX3X6X6X1X1X<X+XW.u.b q F h.Q.T. .H m m f = z l z t k s.F  .t.$.~.q 7 ",
"  }.u.V.].3X1XwX6X@X@X+X+XQ.c.M.R.W.W.y.M 8 1 9 M f x A l c - k f.u.m.b.$.~.K K ",
"  '.s.V.].qXqX<X<X3X=X-X.XG.G.7.8.J.J.k.P 3 u Z Z 2 B Z 5 l 5 j 6...Q.E.#.^.C n ",
"n '.*.V..XqX>X4X<X-X-X3X.X2.G.7.7.8.l.S.:.5 s p 3 a 3.A k l u u f.X.e.v...E.V &.",
"/.L.5.x._.tX7XeX9X3X=X@XI.<.<.;.;.) ( 2.Y 4 6 t * m N.U s U p d g.p.a.D.H N.  , ",
"o.L.<.x._.tXtXeX9X3X=X+XI.5.<.5.4.1.1.2.W 6 l t t F R.U s F p d A.!.e.u...F.# +.",
"q ).,.x._.4X+X*XeX5XwX&X$XS.:./ Y E E ( R 5 j i y G E.@.B ] b V m.U.a.t.H B.O.% ",
"&.).>.z.].8.- 6.9X0XwX&X%XL.! Y : h h <.E u u j 5 G E.U a D w M d.a.U.u...M.. O ",
"n |.q.S.].g.I A.,X<X:X.X%X+X7.W ~ T / 2.W * ; y j L ^ U i U 5 S t.a.U.u.| B.D [ ",
"@ {.9.z.(.oX,.r ,X:X:X$X&X4XP.~ ( ) / ! f ; f 3 u g g i 2 i 3 m v.a.a.u.| B.o.o.",
"q (.,.x.[.K.4 4.qX&X2X%X%X$X$XV.4.8.7.! R c c c A A l u u y 2 Z g.,.r.r. .N.K C ",
"d.OXs.9X9X2XqXqX2X-X2X*X&X%X*X_.K.J.J.J.H.J.J.l.l.x.S.f.3.,.,.3.k.d.b.M.r.).$ + ",
"q 1 . @ <     @ /.M.O.V X [ V O < O.r.O.o.e D 7 # +.D 7 $ V /.d.-., # o & o.$ o ",
"q 1 $   o + <   @   & D < 1 1 .   O o @ O &.K O.& # -.e   @ K d.[ O   @ 1 [ # V ",
"-.K < $ 1 7 % 1 $   o $ + . #     O q D # D d.q . e O.[ q e +.d.# . + d.d.r.r.K ",
"@ + % -.V , . d.7 #       O       o $ @ O 1 O.n o # O.V + # 1 e 7 , . 7 +.1 , # ",
"D # o   . $ # +.&.V o # n C D < o D O   < K @ + D n @ + o o @ . -.C + 1 1 . . O ",
"d.D D & # % , o 7 o D /.+.1 D q # o.O . , $ , # D $ o + @ 1 @ $ $ +.r.K o.C q < ",
"[ , &.o , V $   + e K B.r.e d.d., @   o M.[ O . .   +.d.V < V   +./.C 1 &.+.e M.",
"@ V  X& &. X&.o.7 , e , + @ o r. XV o . + K &./.O.d.e q D , q D o V 1 e % 1 < K ",
", V o.O & D o.% < C D , # O . $ D 1 7 O.< q O.[ q # $ $ +.@ . O.% q O % o # o # ",
"e [ 1 1 $ @ &.e & 1 +.n +.7 # . O q @ < o , o       + . D < @ o + + D r.@   . . ",
"+.7 q  Xr.[ o.e . O q &.O.o [ M.q q #     . O .   . K < K B., .   . V o.V o.o.1 "
};
