/* XPM */
static char *_fe4b9a4b277467fde18b0374c271b4aHdbXVcjwQ0V30Ydj[] = {
/* columns rows colors chars-per-pixel */
"40 40 229 2 ",
"   c #020202",
".  c #0C0101",
"X  c #010A01",
"o  c #0C0B00",
"O  c #02010B",
"+  c #0C010C",
"@  c #000E08",
"#  c #0B0B0D",
"$  c #130101",
"%  c #1B0002",
"&  c #130C01",
"*  c #1C0B00",
"=  c #14000C",
"-  c #1C030D",
";  c #130D0B",
":  c #051102",
">  c #0E110E",
",  c #181504",
"<  c #020114",
"1  c #0A0214",
"2  c #080717",
"3  c #140013",
"4  c #180516",
"5  c #111113",
"6  c #1C1314",
"7  c #17171A",
"8  c #260702",
"9  c #261C0D",
"0  c #210711",
"q  c #080025",
"w  c #1C1D20",
"e  c #16122D",
"r  c #130330",
"t  c #250425",
"y  c #241F22",
"u  c #222225",
"i  c #252629",
"p  c #28292C",
"a  c #35212C",
"s  c #2E2F32",
"d  c #323336",
"f  c #333438",
"g  c #393A3E",
"h  c #1E1B48",
"j  c #321D46",
"k  c #1A364E",
"l  c #33304D",
"z  c #2F2F62",
"x  c #433F56",
"c  c #463F72",
"v  c #3F4044",
"b  c #3C445B",
"n  c #2D4B63",
"m  c #454549",
"M  c #494A4E",
"N  c #4E4F53",
"B  c #48465E",
"V  c #4F5054",
"C  c #515256",
"Z  c #535458",
"A  c #595A5E",
"S  c #684958",
"D  c #484968",
"F  c #4C5070",
"G  c #6A4D73",
"H  c #7B567C",
"J  c #5F6064",
"K  c #616266",
"L  c #646569",
"P  c #6A6A6E",
"I  c #6F6F73",
"U  c #747679",
"Y  c #76787B",
"T  c #8F6B6B",
"R  c #86687D",
"E  c #807173",
"W  c #A47178",
"Q  c #DCEB14",
"!  c #E5E900",
"~  c #CDC52B",
"^  c #DBCF34",
"/  c #F5FB35",
"(  c #D1BF6B",
")  c #F7EF4F",
"_  c #D8C669",
"`  c #DED161",
"'  c #D9C77B",
"]  c #DBDA75",
"[  c #E8DD6B",
"{  c #F7DC6E",
"}  c #EACD76",
"|  c #E6D477",
" . c #F5DA75",
".. c #E7E167",
"X. c #EBE378",
"o. c #FCE776",
"O. c #3E2E89",
"+. c #4D4290",
"@. c #755086",
"#. c #7B668A",
"$. c #7B7C80",
"%. c #514DAB",
"&. c #7A53A6",
"*. c #865D86",
"=. c #885898",
"-. c #97569D",
";. c #8C6789",
":. c #877682",
">. c #87669F",
",. c #976A9B",
"<. c #957291",
"1. c #AC6A86",
"2. c #A26A93",
"3. c #AA7598",
"4. c #B97C9B",
"5. c #8954A1",
"6. c #975CAC",
"7. c #A15BA4",
"8. c #9867A5",
"9. c #9569AD",
"0. c #9E79A7",
"q. c #A466AE",
"w. c #A979A9",
"e. c #B479A6",
"r. c #A668B5",
"t. c #BF6CBE",
"y. c #A977B6",
"u. c #B979B7",
"i. c #CE7BAE",
"p. c #AA5EDA",
"a. c #9A7BC1",
"s. c #AE73C7",
"d. c #AC70CC",
"f. c #808185",
"g. c #848489",
"h. c #8A8C8F",
"j. c #8B8D90",
"k. c #929396",
"l. c #989A9D",
"z. c #A98799",
"x. c #BC809C",
"c. c #9B84A5",
"v. c #A884A2",
"b. c #BA8AA9",
"n. c #B985B6",
"m. c #9FA0A4",
"M. c #A7A8AC",
"N. c #B2B2B6",
"B. c #B9BABE",
"V. c #CB819C",
"C. c #CB94AB",
"Z. c #D899AE",
"A. c #DC99B4",
"S. c #E296BB",
"D. c #E695B9",
"F. c #D8A6B8",
"G. c #CFB4BB",
"H. c #E2A5BA",
"J. c #D8CB88",
"K. c #DBD285",
"L. c #D6C797",
"P. c #DED396",
"I. c #F0CC89",
"U. c #E4D589",
"Y. c #ECDE8C",
"T. c #F2D888",
"R. c #E1CD9A",
"E. c #E7DA95",
"W. c #F1D994",
"Q. c #EFE78B",
"!. c #F9E887",
"~. c #ECE194",
"^. c #F4EA95",
"/. c #F9E89B",
"(. c #FDEB9B",
"). c #F6F794",
"_. c #FDF09B",
"`. c #FFF598",
"'. c #DCC8AB",
"]. c #E9D7A7",
"[. c #EBDCAD",
"{. c #E5DBB6",
"}. c #F8DBB5",
"|. c #EAE0A9",
" X c #F3E3A4",
".X c #FEECA1",
"XX c #F7E6A9",
"oX c #FDEDAC",
"OX c #FCF4A9",
"+X c #EBE6BA",
"@X c #F5E7B6",
"#X c #FFEEB1",
"$X c #FFF4B5",
"%X c #FDF2BA",
"&X c #FFFCB8",
"*X c #B486CB",
"=X c #BB92C9",
"-X c #E29EC5",
";X c #F79BC3",
":X c #CEA8C6",
">X c #DCB3C8",
",X c #E8A6C5",
"<X c #F3AAC4",
"1X c #F9A7CB",
"2X c #F4BCCF",
"3X c #EDAAD4",
"4X c #FFA9D3",
"5X c #FEB1D4",
"6X c #FABAD7",
"7X c #F6B6E7",
"8X c #C4C5C8",
"9X c #D5C6D9",
"0X c #DBDCDF",
"qX c #EACAD0",
"wX c #F4C5D9",
"eX c #EBE2C1",
"rX c #F5EDC4",
"tX c #F9E8C6",
"yX c #FFF2C5",
"uX c #FDFCC7",
"iX c #FFF5CD",
"pX c #F6F8D0",
"aX c #FFCCEC",
"sX c #ECEEEC",
"dX c #F8F8EE",
"fX c #EEEDF9",
"gX c #FDFFF4",
"hX c #F7F7FB",
"jX c #FEFDFE",
/* pixels */
"$.h.P h.N.v # 7 v 5 p Z w v 7 Z l.B.$.Z I M g p U g.f.5 U f.h.L U N u P # 5 u g ",
"N B.U I m 5 h.m 5 # m.v w M.8XP M j.. . . < < < g.N # f m P J 7 g # # 5 5   5 m ",
"A v f.v u m L w 7 g 7 Z 8Xh.k.y . - >XqX>Xk n k 2 2 w     5 J h.f       # L m U ",
"p w g u $.8X0Xh.u M L l.$ = 0 >X2XH.,X<X5Xh h x l 9X. $   # M m u w # m f # u A ",
"g u m.k.5 Z $.$.v u d % wX6Xx.aX,XD.<X4X;X7X7X3XS.1X6XV.<X- 5 v J M.g I Z p 5 g ",
"l.u p u p s s $.L Z % wXZ.<XaXD.D.A.5X5X1X5XD.1X1X;Xi.5XV.C.% $.f.U f   Z l.s m ",
"f.k.U U $.k.g N M.. qXA.6X5XD.5X5X1X,X,X2X2XH.<XH.Z.A.,X-XH.F.$ w 7   N U 0XN.P ",
"Z U m.m.k.l.h.L $ <X4X4XA.-XZ.,XF.:X1 .       G.C.:Xt .   F.F.Z.% f A 8Xk.g $.7 ",
"L 7 u J P J h.N . 6X;XS.F.>X3 % q +   q X O 5 . - + + O : % F.F.% k.k.J M.M.# p ",
"7     # p Z A M   wX3Xb.-   O 6   e 2 X : < O $ $ . #   X . $ G.. f m s Z h.v g ",
"    p p l.m M f f = = a   . ).    &   {.E.    $ [..   >     . . M.k.s 5 5 Z p s ",
"I p 5 L h.$.7 I 5 O +   X X.'.Q./.$ W.(.} E.$ E.' ^.E.o       6 B.0XP l.$.g.N.v ",
"8Xk.J m l.$.# w # O #   +XI.`.&X[.U.W.}.{ Q.U..X(.| | R.* @   ; $.I J N.k.s g 7 ",
"I m.8Xh.U h.v #       9 J./._.'.OX. 6 ^.yX+Xo $ L.(.`.' %   >   # K   u 7   5 g ",
"J Z $.U U P g m.    o P..XoX@XuX  jXgX  +X  hXjX$ $XQ.Y.E.@   . .     s J # # 7 ",
"g m Z I u s N.g.  o . [.#XE.iX. hXgXgXhX< gXsXjXjX. @X XI.I.!.,   $.m J M.p p h.",
"I v w Z N N Z Z     pX].oX&X+X. jXhX  jXO gXjXO fX  %XoXoX.X| J.6 m.U f.A P h.l.",
"  # # 5 u $.I N w   eXXX.XU.@X. jXfXjXjX  dXjXjXjX. |. XoX`.| |.  L g I g Z Z N ",
"      f f.p w J N.. {.oXY._.%X. jXhXjXgX  jXfXjX0X  %XXXW. .Y.o Z L N g.$.g U U ",
"  7 s $.A v u U $.  iX$X/.^.P.eXo jXjX  rX  dXjX& rXoX/..X[ J.$ P 8Xm.U I L P J ",
"J M J m N A 5 I $.& {.P..X#X&X%X{.. . tX XtX& * +XXXOX_ T.[ yX  M I s v p m L k.",
"8X$.P A k.N.g g w ; . [.#X].oXU.uXiXtX]..X%X].[.%X^._ !. .X.. 1 P Z f l.m.J   v ",
"f.g.g A M h.L w V   . yXXXtXXX(.Y. X@XoX(./. X$X.X| o.{  .X.. r g.g I P h.f p h.",
"Z m.l.N   P 0Xf C     o eX@X XOX.XoX}.+XrX}._.!.I.} o.` XX      M v U N P h.g.f ",
"k.P f.U U f.M.v N   >   6 $X~.^.K.uX}.. o * U.{ o. .| ]..       Z f f.Z v A # 7 ",
"J m.P # s I P g.L         % 8 +XuX|.#X_.] U.~.( !.W.% 0 .       M.M L A Z $.I $.",
"u 7 l.l.u f.8XU f.X   > # r.H 4   . @XOX] X.[.% % % ,.#.&       A 7 J I N P f.f.",
"Z 7 g 0Xs A M.k.U     >   3.<.. :.c.3 $ . % % 0.;.t a.G .       # u s 8Xk.m U P ",
"M.I # J s 7 w M f.    + 4 ;.G 3 =Xy.y.w.+ y.*X8.H 4 >.*X1       5 A g U f.f.s w ",
"Z M # u m     u 8X. . = ;.>.r =X-.7.n.S , d.-.e.,.;.= *.>.      l.v p 5 g f.s 5 ",
"Z M s   5 w m   u . = = v.R = 3.u.t.-.0.O u.4.2.s.5.= z.;.      $.7   u M $.p L ",
"l.U m s M N f M s   X O O   # d.p.1.W ;.. u.q.r.s.=.1   X       p # w M.M.m.m.U ",
"u w f l.L v # M.N p O 2 D F   w.r.e.=.&.2 w.3.e.b.;.1 B b     A N v # N h.M v p ",
"I p 5   # s p h.k.L < F z h y T 4.4.=.>.6 r.u.2.*.*.q +.%.x O # l.P 7 M M # # 7 ",
"M.I I g p f v 5 N 5 < z F O.r y.q.s.=.#.  *X8.w.n.H j c z l O s s h.m.U f.P Z m ",
"$.v k.5 v L s   w A U O <   c.8.y.6.,.E   ,.n.8.*.R E   : 2 L   h.8XP M k.h.A N.",
"u L 0Xg k.0Xk.f.N v A v i X . z.*.5.,.:.1 y.y.8.9.@.1   I v Z I 5 L M A f M m U ",
"v L f.7 g I f.f m P I v p 7 q . 8 t - $ . 8 % % 8 % + d h.u # g.f Z 7 f 5 p 5 p ",
"A $.M M s u k.A g M h.J h.N   / ! ^ ^ / Q ~ ) ^ ~ ..o # I m u 5 w w I m.u   # # ",
"h.N Z 0Xm.$.f.A # 7 Z k.g.                    #   #   # Y B.v #   # L f.L f.f.M "
};
