/* XPM */
static char *result[] = {
/* columns rows colors chars-per-pixel */
"40 40 199 2 ",
"   c #030305",
".  c #0B0B0D",
"X  c #111113",
"o  c #17171A",
"O  c #18181A",
"+  c #1C1D20",
"@  c #1F2022",
"#  c #222225",
"$  c #28292C",
"%  c #2E2F32",
"&  c #2F3033",
"*  c #373735",
"=  c #333438",
"-  c #3A3A3D",
";  c #423F3F",
":  c #325A27",
">  c #3D493B",
",  c #3E5139",
"<  c #366D2B",
"1  c #3B6E2D",
"2  c #3F772B",
"3  c #3C6B32",
"4  c #41453E",
"5  c #44573F",
"6  c #427B2E",
"7  c #466938",
"8  c #446C3B",
"9  c #4C6C38",
"0  c #457737",
"q  c #447B32",
"w  c #4B723B",
"e  c #49793A",
"r  c #3E3B40",
"t  c #433E44",
"y  c #493F51",
"u  c #3F4044",
"i  c #444444",
"p  c #494646",
"a  c #454942",
"s  c #494A46",
"d  c #454549",
"f  c #4A4749",
"g  c #454949",
"h  c #4B4B4B",
"j  c #514E4F",
"k  c #495644",
"l  c #4E524B",
"z  c #51514F",
"x  c #515F4F",
"c  c #4B4553",
"v  c #4E4F53",
"b  c #524E52",
"n  c #514759",
"m  c #504B58",
"M  c #4F5053",
"N  c #545353",
"B  c #535458",
"V  c #5A5758",
"C  c #5A5B5E",
"Z  c #605D5F",
"A  c #496645",
"S  c #4C6C43",
"D  c #5A6E46",
"F  c #51654C",
"G  c #546B4D",
"H  c #4B7241",
"J  c #4E7548",
"K  c #557B46",
"L  c #54754B",
"P  c #4A6252",
"I  c #556657",
"U  c #5B6B56",
"Y  c #5D7159",
"T  c #5F795D",
"R  c #61675E",
"E  c #64765C",
"W  c #5F6064",
"Q  c #646264",
"!  c #686666",
"~  c #646569",
"^  c #676A68",
"/  c #6A6A6E",
"(  c #716E6E",
")  c #667962",
"_  c #6A7B63",
"`  c #6D7D69",
"'  c #71736E",
"]  c #6F6F73",
"[  c #727275",
"{  c #747C71",
"}  c #747679",
"|  c #7D7D7D",
" . c #4B8338",
".. c #51863D",
"X. c #568148",
"o. c #5E8652",
"O. c #608A54",
"+. c #679456",
"@. c #74945F",
"#. c #6D8C6B",
"$. c #72866C",
"%. c #759B6A",
"&. c #788575",
"*. c #7E8C7B",
"=. c #74A463",
"-. c #7BAD71",
";. c #818C7E",
":. c #86947D",
">. c #86A97D",
",. c #7B7C80",
"<. c #807A81",
"1. c #7F8084",
"2. c #808185",
"3. c #838E83",
"4. c #848489",
"5. c #8A8C8F",
"6. c #928D8D",
"7. c #869483",
"8. c #8A9888",
"9. c #959A8E",
"0. c #8F9E95",
"q. c #929395",
"w. c #969B92",
"e. c #9A9E95",
"r. c #999A9D",
"t. c #8EA789",
"y. c #93A98A",
"u. c #8EBB82",
"i. c #96BD85",
"p. c #94B28C",
"a. c #95A295",
"s. c #9AA395",
"d. c #9CAC93",
"f. c #9DA39B",
"g. c #9DAB9B",
"h. c #9AB194",
"j. c #9DBA97",
"k. c #A3A79D",
"l. c #A8A49C",
"z. c #A3AC9B",
"x. c #A4B49D",
"c. c #A7B49C",
"v. c #A09FA0",
"b. c #9FA0A4",
"n. c #A3A4A5",
"m. c #A6ABA3",
"M. c #A9AAA5",
"N. c #A9A6AA",
"B. c #A7A8AC",
"V. c #ABACAC",
"C. c #B5ADAC",
"Z. c #A9B2A5",
"A. c #A9BBA6",
"S. c #AABAA6",
"D. c #ADB3AA",
"F. c #B2B4AD",
"G. c #B2BBAF",
"H. c #B0AFB0",
"J. c #ADB1B4",
"K. c #B3B3B4",
"L. c #B5BCB2",
"P. c #BABCB4",
"I. c #B5B5B8",
"U. c #B5BABB",
"Y. c #BBBBBC",
"T. c #C1BBBE",
"R. c #9AC88D",
"E. c #A8DE9C",
"W. c #ADC7A5",
"Q. c #B3CAAD",
"!. c #AFD4A2",
"~. c #B3D6A8",
"^. c #B6C4B6",
"/. c #B9C3B5",
"(. c #B6CBB7",
"). c #BEC4BB",
"_. c #BCC8BB",
"`. c #BED7B7",
"'. c #B5E1AC",
"]. c #BEE4B4",
"[. c #C1C2B4",
"{. c #C1C4BC",
"}. c #C2CDBC",
"|. c #BDBDC2",
" X c #C0BFC1",
".X c #BEC6C3",
"XX c #C5C4C4",
"oX c #C6CBC3",
"OX c #C4C5C8",
"+X c #CBCCCA",
"@X c #D0CFCE",
"#X c #CBD3C7",
"$X c #D4D7D2",
"%X c #DBDCDF",
"&X c #CEE6C9",
"*X c #D1EEC8",
"=X c #D5F2CC",
"-X c #E1FFD9",
";X c #ECECED",
/* pixels */
",.5./ 5.I.u . o u X $ B @ u O B r.|.,.B [ g r $ ,.1.1.X ,.1.5.~ } v @ / . X @ r ",
"v Y.} [ d X 5.d X . b.u @ b..X/ h 5.r.u .XB.%X|.1.v . = u / W + r X . X X   X d ",
"C r 1.u @ d W @ O r o B .X5.r.%X5.W r u @ C / W W q.+     X W 5.=       . ~ d } ",
"$ + r @ ,.OX%X5.@ v W r.1.B c B ,.1.q.g ] c + ,.r.|./     . c u @ + . d = . @ C ",
"r @ b.q.X B ,.,.u @ & c [ 4.C ~ r W q.1..X5.. ] ,.5.b.4.@ . X u W B.r ] B $ X r ",
"r.@ $ @ $ & & ,.~ B X . + @ $ d v v o ,.,.] g v 1.] q.] u & g ,.1.} &   B r.& u ",
"1.q.,.} ,.q.r M B.OX& u W q.] ] g u c v v ] r.] $ d r.} 4.4.q.C + +   v } %XI./ ",
"B ,.b.b.q.r.5.W ,.~ C b.I.b.r.B.B + . u ] u / r.=   = W OX5.4.  @ = C .Xq.r ,.o ",
"W o @ W / W 5.M @ ] . W M M ~ | b.M C - O   = = d C . X B =   r } q.q.W B.B.. $ ",
"+     . % B W u o @ o   X .   M / ] = ] M     X B I.C q.|.q.& u + = u & B 5.u - ",
"    $ $ b.u u = = %X1.1.  * # x.`.-.p.>.%.t.].I ] q.M / 1.g + ] B.q.& X X B $ & ",
"] $ X ~ 1.1.@ / X u =XW.}.#XL.Q.p.%.8 1 1 2 6 @.R.~.].8.q.C r b.|.%X/ r.,.4.I.u ",
"OXq.W c r.,.. @ . (.-Xy.t.L.P.W.W.i.H e K  .q 1 0 w o.^.@ + r ~ ,.] W K.q.& r o ",
"] b..X5.} 5.u . Q.E.=.w 8 _ :.| b.Z.7.H w 6 6 6 6 e e S Y & ,.,.c W   @ o   . r ",
"W B ,.} } / r &XR...< J H E d.Y.|.`.oX=.3 e .. .2 K e S A ` (.OXu     & W . . o ",
"r d B ] @ % ].-.3 8 K D D 0..X/.P.A.Z.b.;.*.` U I F G Y A t.A.L.f.,.d W B.$ $ 5.",
"] t O N M '.+.0 H 9 9 A D I 3.Z.&.w.G.L.#XG.g.:.` $.#._ A t.`.oXG.v.} 1.C / 5.r.",
"  . X X :.O.0 w J E y.t.^ { ^.P.n.P.#X}.oXG.^._.S.x.#Xx.U E h.d.j.^.r ] r B B v ",
"      i ~.=.7 X.H j.`.oXS.D.).).{.s.M.).L.m.Z.L.^.Z.(.(.W.G $.c.t.g.v 4.,.r } } ",
"  o % i.j.%.D F 7..XU.U.B.s.L.K.M.M.Y.oXD.F.k.k.8.f.Q.G._._ E !.#.T L.} ] W / W ",
"W h $X!.%.7 9 F 1..XJ.B.H.k.F.P.).n.XX@XM.G.}.[.w.&.s.S.g.8.U o.o.A (.r $ d ~ q.",
"OX| *XR.K G $.4.B.b.B.).oXK.B.@XI.r.I.l.[ | T.oXP.s._._.Z.^.Z.8 H A j.r.b.W   u ",
"2.4.*X+.0 ) [. XOXN.Y.P.{.|.5.6.R Z Z Z ! Z ( e.K.Z.)././.x./.=.L P h.] 5.= $ 5.",
"B b.=XJ H &._.T.T.9.C.oX{.M.N ; j Q ! Z j N j s ! n.+XY.{.m.w.W.p.x A.v ] 5.4.& ",
"q./ `.8 8 0..X.Xl.l.l.T.s.h s h Z ! Z j 4 j f j p N 9.).L.m.s.W.p.k g.B r C . o ",
"W b.(.I P 1.^.S.T.T.[.5.4 5 l p p N Z f f p f 4 p 4 i ' m.oXm.z.s.V oXC B ,.[ ,.",
"# O D.$.I 7.8.z.[.{.C.p j k 5 N j j j j b b j j N z l a n.D.^ x.s.n.Q ] M ] ,.,.",
"B O - I.b.).k.7.z.N.f n n s 4 j p j j j j j j j h s s a l w.9.D.L.|.r OXq.d } ] ",
"B.[ . } |.L.S.m.:.b y c c 5 4 h p h s p p h p h h h h l - e.F.9.D.I.- } 1.1.% @ ",
"B h . @ H.U.b.L.3.t j n n s l s s j l p h h s s s l 4 4 4 { D.9.e.Y.V.X - 1.% X ",
"B h &   5.b.f.L.e.f b c y p l p s s s p p s s h l s z a i 9.w.k.F.V.;X@ h ,.$ ~ ",
"r.} C $XA.t.~.u.O.: : 5 5 p p j s h h h j j p h p * p j i q.M.r.J.|.@X.XB.b.b.} ",
"@ @ = V.a.>.j.-.O.8 7 5 5 f b h h h h p p p f 4 ( h C * s V.Y.P.v.Y.V.%XB.c u $ ",
"] $ o L.Q.7.&.K L L L R > - ; - > u f N N N C ! [ W 6.<.q.K.H.T.N.OXT.XX$X. . O ",
"B.[ B.G.S.*.T , S 7 A I &.,.6.N M 1.O . t % r $ ] % Z Z } @XK.% % 5.n.} OX/ B d ",
",.u .XX u ] #X#.) 7.;.n.N.C N.N.u @   X K.| O . .   5.V.~ d ~   5.OX/ h q.5.C J.",
"@ ~ %Xr q.%Xq.1.v r C u + # X b.%XW X . + } r.OX4.B.C B ] u B [ X ~ c C = h d } ",
"u ~ 1.o r ] 1.= d ] ] r $ o . % ] c M 4.d B 4.,.B $ % % 5.# . 4.= B o = X $ X $ ",
"C ,.c g % @ q.C r g 5.W 5.m $ . + B @ d X r X       + . ] d # X + + ] v.#   . . ",
"5.v B %Xb.1.1.C . + B q.4.X ,.J.B B $     . o .   . } d } Y.r .   . ~ 2.~ 1.1.v "
};
