/* XPM */
static char *result[] = {
/* columns rows colors chars-per-pixel */
"40 40 219 2 ",
"   c #030303",
".  c #0B0100",
"X  c #010A01",
"o  c #0D0A01",
"O  c #02020B",
"+  c #0A060D",
"@  c #0B0B0D",
"#  c #130100",
"$  c #1A0100",
"%  c #140A01",
"&  c #1C0B00",
"*  c #17020C",
"=  c #051307",
"-  c #181400",
";  c #010212",
":  c #0B0010",
">  c #04041D",
",  c #0F0A1B",
"<  c #111113",
"1  c #17171A",
"2  c #1B191C",
"3  c #240101",
"4  c #2D0000",
"5  c #2E0A0A",
"6  c #370102",
"7  c #301210",
"8  c #12220D",
"9  c #000223",
"0  c #0B0E21",
"q  c #01032D",
"w  c #1C1D20",
"e  c #091435",
"r  c #2E0030",
"t  c #222225",
"y  c #28292C",
"u  c #2E2F32",
"i  c #333438",
"p  c #393A3E",
"a  c #460000",
"s  c #6A2528",
"d  c #794516",
"f  c #77502F",
"g  c #6F4838",
"h  c #786738",
"j  c #161455",
"k  c #162E7A",
"l  c #681E75",
"z  c #3F4044",
"x  c #454549",
"c  c #494A4E",
"v  c #5D5643",
"b  c #4E4F53",
"n  c #525357",
"m  c #535458",
"M  c #595A5E",
"N  c #7B484E",
"B  c #795D4C",
"V  c #79674C",
"C  c #5B5C60",
"Z  c #5F6064",
"A  c #646569",
"S  c #6A6A6E",
"D  c #6F6F73",
"F  c #717175",
"G  c #747679",
"H  c #8A080F",
"J  c #990308",
"K  c #AB0705",
"L  c #A90D15",
"P  c #A91816",
"I  c #B71615",
"U  c #982915",
"Y  c #98002A",
"T  c #AB1925",
"R  c #B31821",
"E  c #B6142B",
"W  c #97232C",
"Q  c #8F3A2E",
"!  c #8A3839",
"~  c #AC3438",
"^  c #CC0D0C",
"/  c #D50800",
"(  c #F20913",
")  c #C71325",
"_  c #D51A28",
"`  c #D00E33",
"'  c #E21628",
"]  c #F4173B",
"[  c #B14A1F",
"{  c #854C28",
"}  c #97462A",
"|  c #885A2B",
" . c #8A5A36",
".. c #935936",
"X. c #B5592B",
"o. c #AB4E33",
"O. c #AB603B",
"+. c #CA633B",
"@. c #981944",
"#. c #9C3353",
"$. c #845A4E",
"%. c #975548",
"&. c #A65E49",
"*. c #B75A45",
"=. c #8F664D",
"-. c #997459",
";. c #B6674A",
":. c #A76858",
">. c #AB7659",
",. c #8E5B62",
"<. c #AB4E63",
"1. c #AA6A6A",
"2. c #B67962",
"3. c #C97450",
"4. c #9E8277",
"5. c #DBBF6B",
"6. c #D2CA54",
"7. c #ECDB50",
"8. c #FBE95B",
"9. c #D1C673",
"0. c #ECD56D",
"q. c #E7D67A",
"w. c #F1DA78",
"e. c #F8E86B",
"r. c #EBE771",
"t. c #1A1B85",
"y. c #021894",
"u. c #152E8B",
"i. c #243087",
"p. c #051CAA",
"a. c #0D18B0",
"s. c #0928B6",
"d. c #0333B7",
"f. c #2F34B6",
"g. c #054491",
"h. c #1148B3",
"j. c #2F5BBB",
"k. c #7B7C80",
"l. c #4654AC",
"z. c #012BCA",
"x. c #0636C7",
"c. c #1332D0",
"v. c #2A29CC",
"b. c #1038F6",
"n. c #2C2AFE",
"m. c #283CFE",
"M. c #463CC3",
"N. c #014DD1",
"B. c #334DD4",
"V. c #0646F9",
"C. c #1457F4",
"Z. c #2842E4",
"A. c #2246FB",
"S. c #3155F8",
"D. c #808185",
"F. c #848489",
"G. c #8A8C8F",
"H. c #8B8D90",
"J. c #929396",
"K. c #989A9D",
"L. c #9FA0A4",
"P. c #A1A2A6",
"I. c #A7A8AC",
"U. c #B2B2B6",
"Y. c #B9BABE",
"T. c #CDBC8C",
"R. c #DECA8E",
"E. c #DDD390",
"W. c #EAD788",
"Q. c #EBD08D",
"!. c #E5D696",
"~. c #ECDA9B",
"^. c #F2DF99",
"/. c #EEE284",
"(. c #F2E28B",
"). c #FEEC8E",
"_. c #FFF582",
"`. c #E9E297",
"'. c #FAE393",
"]. c #F8E997",
"[. c #F3E39C",
"{. c #FDF39D",
"}. c #FFFA9A",
"|. c #DED5AA",
" X c #E9D7A5",
".X c #EDDDAB",
"XX c #F3DEA3",
"oX c #F2DEAD",
"OX c #E8D5B3",
"+X c #FADDBD",
"@X c #EDE0AE",
"#X c #F3E4A2",
"$X c #F6E7A7",
"%X c #FEECA5",
"&X c #FBE5AB",
"*X c #FEECAC",
"=X c #FDF3A4",
"-X c #FFF3AB",
";X c #F6E7B4",
":X c #FDECB3",
">X c #FEEBBC",
",X c #FFF3B3",
"<X c #FFFDB7",
"1X c #FFF3BD",
"2X c #FFFDB9",
"3X c #C4C5C8",
"4X c #DBDCDF",
"5X c #E9DCCA",
"6X c #F2DAC5",
"7X c #FCEBC5",
"8X c #FFFAC6",
"9X c #E9E7D2",
"0X c #FDEFD5",
"qX c #FFFBD6",
"wX c #E8E5E9",
"eX c #EEF5FE",
"rX c #F3F0F2",
"tX c #FBFCF6",
"yX c #FDFEFC",
/* pixels */
"k.G.S G.U.z @ 1 z < y m w z 1 m K.Y.k.m F c p y G F.D.< G k.H.A G b t S @ < t p ",
"b Y.G D x < G.x < @ L.z w I.3XS c G.K.y 5 U.4XY.F.b @ i x D Z 1 p @ @ < <   < x ",
"M z D.z t x A w 1 p 1 m 3XG.J.4XH.M 5 ~ R 6 S Z Z J.w     < Z H.i     O @ A x G ",
"y w p t k.3X4XG.t c A K.F.m c m ,.7 W ) ( #.4 k.K.Y.S X   @ c x t w @ x i @ t M ",
"p t L.J.< m k.k.z t u c D F.M X 8 @ Q L ' ` 4 = @ 9 L.F.t @ < z Z I.p D n y < p ",
"K.t y t y u u k.A m 0 = w : j f.s.M.r R / 9 h.V.A.f.e = z u x k.D.G i   n K.u x ",
"D.J.G G k.J.p b U.3Xu z q g.h.s.z.c.t.e . A.C.N.C.b.S.j.; F.J.M w 1   b G 4XU.D ",
"m G L.L.J.K.G.A ,.A C , g.z.c.f.f.p.d.x.C.Z.m.n.S.Z.x.m.n.q F.  t i M 3XJ.p k.1 ",
"A 1 t Z S Z G.b t D e k t.v.a.s.d.d.x.z.z.C.b.Z.c.V.C.S.Z.M.q x G J.J.Z I.I.@ y ",
"1     @ y m M c < w : i.l L T J P J ^ K ^ P K P Y W K H U f.q z w u x u n H.z p ",
"  O y y K.x c i i $ s W Y E ) K K ^ I K K / ' _ P I ( ( _ @.#.# I.J.u < < m y u ",
"D y < A G.k.1 F < * P / / K W 3 ; > 9 O * O : . X a ` ] ^ ( L 7 Y.4XD K.k.F.U.z ",
"3XJ.A x K.G @ 2 @ : & .     . E.W.0.0./.q.e.6.w.q.E.# % . 3 g # k.D Z U.J.u p 1 ",
"D P.3XG.G H.z @ + . |.: tXyX   XW.}.).%X%X:X:X*X*X<X9.#XE.~.$ & 2 Z   t 1   < p ",
"Z m G G G S p P.. `.- rXtXyXwX& ;X[.$X&X@XOX7X.X~.!.(.}.w.W.XX X.   X u Z @ @ 1 ",
"p x M D t u U.F.o 6.. yXtXeXyXo .X~.:X:X.X,X2X#X-X-X*X*X#X).'.;X  k.x Z I.y y G.",
"D z w m b b n n   r.. O tXeXyX   X1X,XE.8X].`.`.`.;XoX>X7XW.[.7X% L.G D.M S G.K.",
"O @ @ < t k.D b   `.# yXtXyX9X. @X$X[.[.#X*X-X2X.X*X^.%X'.2X#X5X  A p D p m m b ",
"      i D.y w Z U..   rXtXwXtX. qX#X%X%X#X@X@X>X&X:X*X].(.!.;X% n A b F.G z G G ",
"  1 u k.M z t F G , !.  yXyX  5XOX>XXXXX*X-X[.XX;X:X;XoX:X>X7X  S 3XL.G F A S Z ",
"A c Z x b M < D k.. OX^.$ $ 6X>X{.(.].=X`.[.-X~.*X1X X>X>X>XOXo c D u z y x A J.",
"3Xk.S M J.U.p p w m % R.'.W./.].-X~.>XqX6X1XR.&X*X!.*X%X!. X& H.S n i K.L.Z O z ",
"k.F.p M b G.A w b L.. T. Xe.).R.7X+X>XQ.{. X1X,X#X2XE.{.{.0X. K.F.p D S G.i y G.",
"m L.K.b . S 4Xi b F m 8 & 3 T.0.7.8._.W.7X-X*X~.~.`.<XE.2X% p F.c z G b S G.F.i ",
"J.D D.G G D.I.z b D D p . q./.).{.5.W.(.%X(.=X*X*X>X|.7X  C J.b n i k.m z M @ 1 ",
"Z L.S @ u D S F.A J.C u 1 . . T.Q.].w.).9.(.[.#X@X0X. . 1 D K.I.I.c S M m k.D k.",
"t 2 K.K.t D.3XG D.3XF.n O t m . $ # XXq.r.[.!.# . . @ y i i D k.M 1 Z D b D k.k.",
"n 2 p 4Xu M I.J.G y J.I.Z 1 u . h V # . : # 3 v v @ P.U.z y b < @ t u 3XJ.x G D ",
"I.F @ Z u 1 w c D.D M S z z w 5 Q | | =.N & # ,.:.# x p u n M y < M p G D.D.u 2 ",
"m c @ t x     t 3XU.D.A @ G X v %.U Q g 7 { 4.# 2.:.* b u A 3XI.K.z y < p D.u < ",
"m c u O < w x   t   p D z c .  .Q %.V & ! } -.# { O.4 M   t G I.k.1 X t c k.y A ",
"K.G x u c b i c u X < u w @ X h | ! . B ..3.B $ O.O.# k.n M G.I.y @ w I.I.L.L.G ",
"t w i K.A z @ I.b y     O 1 X d f 1.X g ;.>.3 :.o.2.  A w y c M b z @ b G.c z y ",
"D y <   @ u y H.J.A < y Z S . o.f 6 X a *.% $.! *.>.= 2 < < t @ K.S w c c @ @ 1 ",
"I.D D p y i z < b < D 3XG.b o %.X J T E o ..g >.+.O.. w t c t u u H.L.G D.S m x ",
"k.z J.< z A u   w M G Y.L.. v <.  I _ `   } >.&.X.3.1.1 A x A O G.3XS c J.G.M U.",
"t A 4Xp J.4XJ.D.b z M z w $ $ N B $ 3 # B [ X.;.2.=.# o D z m D < A c M i c x G ",
"z A D.1 p D D.i x D D z y 1 O ; > O O X X X X X   O   u H.t @ F.i n 1 i < y < y ",
"M k.c c u t J.M p x H.Z H.b e k u.y.p.B.s.b.A.A.B.l.q @ D x t < w w D L.t   @ + ",
"H.b m 4XL.k.D.M @ 1 n J.F.X X 8 @ O 0 ; : 8   O O ; ; 0 G Y.z @   @ A D.A D.D.b "
};
