/* XPM */
static char *_c1e8f0c498e4bbdab123e6d702e534dhcj6T1h90raiI6qY[] = {
/* columns rows colors chars-per-pixel */
"40 40 224 2 ",
"   c #030203",
".  c #0B0200",
"X  c #020A00",
"o  c #0B0903",
"O  c #010109",
"+  c #08050B",
"@  c #0B0B0D",
"#  c #130100",
"$  c #1A0101",
"%  c #130B00",
"&  c #001402",
"*  c #161403",
"=  c #060717",
"-  c #0D0015",
";  c #01011B",
":  c #190515",
">  c #150219",
",  c #0D101F",
"<  c #111113",
"1  c #17171A",
"2  c #18181B",
"3  c #220200",
"4  c #2B0005",
"5  c #360003",
"6  c #2C0A12",
"7  c #1D201E",
"8  c #000026",
"9  c #1B0225",
"0  c #181123",
"q  c #1C1D20",
"w  c #090F37",
"e  c #280E32",
"r  c #222225",
"t  c #28292C",
"y  c #2E2F32",
"u  c #303134",
"i  c #333438",
"p  c #393A3E",
"a  c #4C0000",
"s  c #6E0A08",
"d  c #5F3A0D",
"f  c #7F3C1F",
"g  c #7A012A",
"h  c #642B3A",
"j  c #755317",
"k  c #7C4C24",
"l  c #7C5933",
"z  c #07054B",
"x  c #122967",
"c  c #3D3C64",
"v  c #783D59",
"b  c #3F4044",
"n  c #404145",
"m  c #454549",
"M  c #494A4E",
"N  c #4E4F53",
"B  c #535458",
"V  c #595A5E",
"C  c #734E58",
"Z  c #7F625C",
"A  c #5F6064",
"S  c #646569",
"D  c #6A6A6E",
"F  c #6F6F73",
"G  c #707074",
"H  c #747679",
"J  c #9B0B03",
"K  c #901112",
"L  c #9D1918",
"P  c #AB0303",
"I  c #B80303",
"U  c #A41A04",
"Y  c #AD081B",
"T  c #A71219",
"R  c #B8191D",
"E  c #8D2210",
"W  c #A42100",
"Q  c #84162B",
"!  c #B60A2D",
"~  c #BB1723",
"^  c #AA1733",
"/  c #8D392D",
"(  c #A82A2B",
")  c #BB2335",
"_  c #D40D12",
"`  c #F30F10",
"'  c #E32A1D",
"]  c #CD0F29",
"[  c #EA032A",
"{  c #FF0E25",
"}  c #8B4C18",
"|  c #A54A15",
" . c #835425",
".. c #914E35",
"X. c #B15432",
"o. c #8C6437",
"O. c #976B33",
"+. c #A7663B",
"@. c #B46E3A",
"#. c #C34B31",
"$. c #C9593E",
"%. c #D47A3C",
"&. c #A31640",
"*. c #AA2346",
"=. c #ED0644",
"-. c #8D4F4D",
";. c #8B5845",
":. c #9E584B",
">. c #AC574C",
",. c #B95A57",
"<. c #90654D",
"1. c #AE6E4F",
"2. c #B86846",
"3. c #B66857",
"4. c #A67555",
"5. c #917D72",
"6. c #AA6863",
"7. c #B76C6D",
"8. c #A6726A",
"9. c #C55350",
"0. c #C46948",
"q. c #D96C51",
"w. c #C87965",
"e. c #CE7273",
"r. c #E07467",
"t. c #B4845C",
"y. c #AB8964",
"u. c #C08440",
"i. c #CAB75B",
"p. c #DDBE7D",
"a. c #CDC656",
"s. c #E3D75D",
"d. c #F8FF50",
"f. c #D0CC61",
"g. c #D7CB7A",
"h. c #EECD65",
"j. c #F5D86A",
"k. c #E6CE7E",
"l. c #EBDC77",
"z. c #F9DC76",
"x. c #F5E76A",
"c. c #E4E674",
"v. c #FAE779",
"b. c #1A3181",
"n. c #042698",
"m. c #021AB0",
"M. c #0128AA",
"N. c #152EAC",
"B. c #0A32AE",
"V. c #0C2BB5",
"C. c #0938B5",
"Z. c #1E31B6",
"A. c #374CB8",
"S. c #7B7C80",
"D. c #405EBE",
"F. c #0217D0",
"G. c #0338CB",
"H. c #1232CC",
"J. c #2430C4",
"K. c #0A30F0",
"L. c #1C38FA",
"P. c #2C37EA",
"I. c #6335C9",
"U. c #104DD9",
"Y. c #2645C9",
"T. c #2947D8",
"R. c #0D47FD",
"E. c #114AF8",
"W. c #1751FB",
"Q. c #2848FA",
"!. c #2153FB",
"~. c #808185",
"^. c #848489",
"/. c #8A8C8F",
"(. c #929396",
"). c #989A9D",
"_. c #9FA0A4",
"`. c #A1A2A6",
"'. c #A7A8AC",
"]. c #B2B2B6",
"[. c #B9BABE",
"{. c #D7CB87",
"}. c #DCD09B",
"|. c #F1C483",
" X c #EBD888",
".X c #F7DC88",
"XX c #E7D898",
"oX c #EDDC9B",
"OX c #F1DD99",
"+X c #DAE596",
"@X c #F7EA87",
"#X c #E6E594",
"$X c #FBE598",
"%X c #FFF09D",
"&X c #D9D5AA",
"*X c #F5C9A8",
"=X c #E3D7A6",
"-X c #F3DEA8",
";X c #F5D7BC",
":X c #CFE0AC",
">X c #DBE6A2",
",X c #EAE5A7",
"<X c #F7E6A5",
"1X c #FDEDAC",
"2X c #FDF5A9",
"3X c #EDE6B7",
"4X c #F3E4B3",
"5X c #F8EAB8",
"6X c #EBFDB9",
"7X c #FEF7B8",
"8X c #FFFCBC",
"9X c #C4C5C8",
"0X c #DBDCDF",
"qX c #EAEAC6",
"wX c #FAEDC9",
"eX c #FDF3C8",
"rX c #F9EED2",
"tX c #FCFBD3",
"yX c #D9FFF1",
"uX c #FAFAE8",
"iX c #EEEBF3",
"pX c #F6F7F5",
"aX c #FAF6FD",
"sX c #FEFDFE",
/* pixels */
"S./.D /.].b @ 1 b < t B q b 1 B ).[.S.B F M p t H ^.~.< H ~./.S H N r D @ < r p ",
"N [.H F m < /.m < @ _.b q '.9XD M /.).- = '.0X[.^.N @ i m D A 1 p @ @ < <   < m ",
"V b ~.b r m S q 1 p 1 B 9X/.(.0X/.V . _ L 4 D A A (.q     < A /.i       @ S m H ",
"t q p r S.9X0X/.r M S ).~.B M B S.a *.{ _ K 3 S.).[.D     @ M m r q @ m i @ r V ",
"p r _.(.< B S.S.b r y M F ^.V = + 3 ( I R Q 5 # e ; `.^.r @ < b A '.p F B t < p ",
").r t r t y y S.S B < @ 2 . w G.R.D.  ` T w M.U.n.x O ; b y m S.~.H i   B ).y m ",
"~.(.H H S.(.p N '.9Xy b 8 Y.!.R.R.L.Q.# ; b.B.G.H.V.B.c ; ^.(.V q 1   N H 0X].D ",
"B H _._.(.)./.S H S V 8 A.!.K.W.T.T.L.Y.H.M.M.C.C.n.B.G.N.$ ^.  r i V 9X(.p S.1 ",
"S 1 r A D A /.N r F . T.H.!.Q.P.P.L.!.N.m.P.K.F.H.V.N.H.T.n.8 n H (.(.A '.'.@ t ",
"1     @ t B V M < q a L.I.g J W E L P ^ K J W U J T ! I s b.z n q i m y B /.b p ",
"    t t ).m M i i 7 ! Q U ' _ [ =.` _ R ~ T J R R P _ ^ ] s J * '.(.y < < B t y ",
"F t < S /.S.1 F < @ ] &.] _ ) 3 X = - # # . : # $ 6 h Y [ U U & [.0XD ).S.^.].b ",
"9X(.A m ).S.@ q @ . ( $ # . % {.l.v.v.@X@Xa.c.c.@X X3 & > $ Q $ S.F A ].(.y p 2 ",
"F _.9X/.H /.b @   $ 4 h.z.h.z.v.1X# 9 j.i.5X% . 5Xk.j.d.f.&X9 8 - A   r 1   < p ",
"A B S.H H D p _.% *X>X#X+X6X5X;X# pXyX$ =X  uXsX  wX4X;X2X|.x.s.o     u A @ @ 1 ",
"p m B F r y ].^.. =X2X;X<X2X4X. sXsXuXaXO sXiXsXsX. qX,XwXj.h.x.> S.m A '.t t /.",
"F b q B N N B B . eX$XeXoX#X4X% aXaX  sX  sXsX1 pX% eX,X-X.Xj.l.@ _.H ~.V D /.).",
"  @ @ < r S.F N o wX<X4X1X<X3X  sXsXsXiXo sXsXiXaX. ,X7X X$Xh.=X  S p G p B B N ",
"      i ~.t q A ].* =X1X1Xg.tX  aXsXaXuX  sXsXsXsX* ,X,X@Xp.v.. B S N ^.S.p H H ",
"  1 y S.V b r H S.  3X<XOX8X=XqX. sXpX. rX. sXaX. 3X<X1Xl. Xg.1 F 9X_.H F S D A ",
"A M A m N V < F S.o qXOX<X<X7X4XeX    4XeX=X. * rX4X1X$Xh.2X}.O M F y b t m S (.",
"9XS.D V (.].p p q N X 8XoX<X1XXX<X5XtX-X7X<X8X}.4X7XXXk.@Xa.. /.D B i )._.A   b ",
"~.^.p V M /.S q N `.X OX8X-X<X2X%XOX-X5X<X%X X8X1XoX1X@Xj.x.. ).^.p F D /.i t /.",
"B _.).N   D 0Xi N F B   5X4XeX$X#X:X$X<X6X{.<X2X X$X#Xv.XX  p ^.M n H N D /.^.i ",
"(.D ~.H H ~.'.b M F F p # 4X=X8X3XtX$X>   * eX&X5X Xc. X. A (.N B i ~.B b V @ 1 ",
"A _.D @ y F D ^.S (.A y 1 # # qXqXXX3X#X4X3X,X$Xl.#X3 # 2 D ).'.'.M S V B S.F S.",
"r 1 ).).r ~.9XH ~.9X^.B , <.l   $ 4 rXtX*X7X>X3 4 # 6.Z . i F ~.V 1 A F N D ~.~.",
"B 1 p 0Xy V '.(.H t (.'.> 6.o.  8.2.# . 4 #   4.j . 7.C . t M < @ r y 9X(.m H D ",
"'.F @ A y 1 q M ~.D V D 3 :.l # ,.q.4.5.3 O.O.+.;.$ o.<.# B V t < V p H ~.~.y q ",
"B M @ r m     r 9X].^.& 3./ * y.,.>.+.l $ 6.e.:.:.v e f ;.. 9X'.).b t < p ~.y < ",
"B M y   < q m   r   p & 0...  o.0.7.} -.# 3.#.@.1...X @.<.# H '.S.1   r M S.t S ",
").H m y M N i M y   < & 9 - & w.o.t./ | % +.@.1.$. ..   o @ /.'.t @ q '.'._._.H ",
"r q i ).S b @ '.N t + $ ~ ) . $.q.} <.:.  6.1.:.0.o.O ] T 5 # V N b @ N /.M b t ",
"F t <   @ y t /.(.S   R { _ X 3.X.r...-.O 3.X.1.0.j X ` _ / 3 @ ).D q M M @ @ 1 ",
"'.F F p t i b < N <   ^ ] T X 4.1.3...-.  w.%.+.X. .  ' R s # u y /._.H ~.D B m ",
"S.b (.< n S y   q V H = # 5 8.9.1.o.j -.# X.| 3.,.;.C     < S   /.9XD M (./.V ].",
"r S 0Xp (.0X(.~.N b V b 2 . 4 9.<.k } l * @.u.<./ d 3 0 F b B F < S M V i M m H ",
"b S ~.1 p F ~.i m D F b t 1 X - 8 9 : - = #   ; - o % y /.r @ ^.i B 1 i < t < t ",
"V S.M M y r (.V p M /.A /.N w A.C.J.C.P.E.J.Z.G.Z.x z < F m r < q q F _.r   @ @ ",
"/.N B 0X_.S.~.V @ 1 B (.^.        +                     H [.b @   @ S ~.S ~.~.M "
};
