/* XPM */
static char *_cb3c82904784bbfcc4510bb2b5469dcJmnQeAQlOd77gcHt[] = {
/* columns rows colors chars-per-pixel */
"40 40 223 2 ",
"   c #030303",
".  c #0B0101",
"X  c #000A01",
"o  c #0D0B01",
"O  c #02020B",
"+  c #0A060D",
"@  c #0B0B0D",
"#  c #130100",
"$  c #1A0100",
"%  c #140A01",
"&  c #1C0B00",
"*  c #17020C",
"=  c #051307",
"-  c #171303",
";  c #010212",
":  c #0B0010",
">  c #04041D",
",  c #0F0A1B",
"<  c #111113",
"1  c #17171A",
"2  c #18181B",
"3  c #240202",
"4  c #2C0101",
"5  c #2D0F0D",
"6  c #370203",
"7  c #13230E",
"8  c #030523",
"9  c #01032D",
"0  c #1C1D20",
"q  c #0D0F31",
"w  c #031637",
"e  c #2E0030",
"r  c #1F2023",
"t  c #222225",
"y  c #28292C",
"u  c #2E2F32",
"i  c #303134",
"p  c #333438",
"a  c #393A3E",
"s  c #460000",
"d  c #6A2528",
"f  c #794516",
"g  c #77502F",
"h  c #6F4838",
"j  c #786738",
"k  c #161455",
"l  c #162E7A",
"z  c #681E75",
"x  c #3F4044",
"c  c #454549",
"v  c #494A4E",
"b  c #585449",
"n  c #4E4F53",
"m  c #525357",
"M  c #535458",
"N  c #595A5E",
"B  c #7B484E",
"V  c #6D544D",
"C  c #795D4C",
"Z  c #79674C",
"A  c #5F6064",
"S  c #646569",
"D  c #6A6A6E",
"F  c #6F6F73",
"G  c #7A6E70",
"H  c #747679",
"J  c #8A080F",
"K  c #990308",
"L  c #AB0705",
"P  c #B7090C",
"I  c #A90D15",
"U  c #A91816",
"Y  c #B71615",
"T  c #982915",
"R  c #98002A",
"E  c #AB1925",
"W  c #B31821",
"Q  c #B6142B",
"!  c #97232C",
"~  c #8F3A2E",
"^  c #8A3839",
"/  c #AC3438",
"(  c #CC0D0C",
")  c #D50800",
"_  c #F20913",
"`  c #C71325",
"'  c #D51A28",
"]  c #D00E33",
"[  c #E21628",
"{  c #F4173B",
"}  c #B14A1F",
"|  c #854C28",
" . c #97462A",
".. c #885A2B",
"X. c #8A5A36",
"o. c #935936",
"O. c #B5592B",
"+. c #AB4E33",
"@. c #AB603B",
"#. c #CA633B",
"$. c #981944",
"%. c #9C3353",
"&. c #845A4E",
"*. c #975548",
"=. c #A65E49",
"-. c #B75A45",
";. c #8F664D",
":. c #997459",
">. c #B6674A",
",. c #A76858",
"<. c #AB7659",
"1. c #8E5B62",
"2. c #AB4E63",
"3. c #AA6A6A",
"4. c #B67962",
"5. c #C97450",
"6. c #9E8277",
"7. c #D2CA54",
"8. c #ECDB50",
"9. c #FBE95B",
"0. c #D1C673",
"q. c #ECD56D",
"w. c #E7D67A",
"e. c #F1DA78",
"r. c #F8E86B",
"t. c #EBE771",
"y. c #1A1B85",
"u. c #021894",
"i. c #152E8B",
"p. c #243087",
"a. c #051CAA",
"s. c #0D18B0",
"d. c #0928B6",
"f. c #0333B7",
"g. c #2F34B6",
"h. c #442D87",
"j. c #054491",
"k. c #1148B3",
"l. c #2F5BBB",
"z. c #7B7C80",
"x. c #4654AC",
"c. c #001BC8",
"v. c #012BCA",
"b. c #0636C7",
"n. c #1332D0",
"m. c #2A29CC",
"M. c #1038F6",
"N. c #2C2AFE",
"B. c #283CFE",
"V. c #463CC3",
"C. c #014DD1",
"Z. c #334DD4",
"A. c #0646F9",
"S. c #1457F4",
"D. c #2842E4",
"F. c #2246FB",
"G. c #3155F8",
"H. c #414CFE",
"J. c #808185",
"K. c #848489",
"L. c #8A8C8F",
"P. c #8B8D90",
"I. c #929396",
"U. c #989A9D",
"Y. c #9FA0A4",
"T. c #A7A8AC",
"R. c #A9AAAE",
"E. c #B2B2B6",
"W. c #B9BABE",
"Q. c #CDBC8C",
"!. c #DECA8E",
"~. c #DDCA90",
"^. c #DDD390",
"/. c #EAD788",
"(. c #EBD08D",
"). c #E5D696",
"_. c #ECDA9B",
"`. c #F2DF99",
"'. c #EEE284",
"]. c #F2E28B",
"[. c #FEEC8E",
"{. c #FFF582",
"}. c #E9E297",
"|. c #FAE393",
" X c #F8E997",
".X c #F3E39C",
"XX c #FDF39D",
"oX c #FFFA9A",
"OX c #DED5AA",
"+X c #E9D7A5",
"@X c #EDDDAB",
"#X c #F3DEA3",
"$X c #F2DEAD",
"%X c #E8D5B3",
"&X c #FADDBD",
"*X c #EDE0AE",
"=X c #F3E4A2",
"-X c #F6E7A7",
";X c #FEECA5",
":X c #FBE5AB",
">X c #FEECAC",
",X c #FDF3A4",
"<X c #FFF3AB",
"1X c #F6E7B4",
"2X c #FDECB3",
"3X c #FEEBBC",
"4X c #FFF3B3",
"5X c #FFFDB7",
"6X c #FFF3BD",
"7X c #FFFDB9",
"8X c #C4C5C8",
"9X c #DBDCDF",
"0X c #E9DCCA",
"qX c #F2DAC5",
"wX c #FCEBC5",
"eX c #FFFAC6",
"rX c #FDEFD5",
"tX c #FFFBD6",
"yX c #E8E5E9",
"uX c #EEF5FE",
"iX c #F3F0F2",
"pX c #FBFCF6",
"aX c #FDFEFC",
/* pixels */
"z.L.D L.E.x @ 1 x < y M 0 x 1 M U.W.z.M F v a y H K.J.< H J.L.S H n t D @ < t a ",
"n W.H F c < L.c < @ Y.x 0 T.8XD v L.U.3 G T.9XW.K.n @ p c D A 1 a @ @ < <   < c ",
"N x J.x t c S 0 1 a 1 M 8XL.I.9XL.N 4 W / 6 D A A I.0     < A L.p       @ S c H ",
"y 0 a t z.8X9XL.t v S U.J.M v M z.4 %._ ` ! 3 z.U.W.D     @ v c t 0 @ c p @ t N ",
"a t Y.I.< M z.z.x t u v F K., + = 4 ] [ U ~ . 7 X L.Y.K.t @ < x A T.a F M y < a ",
"U.t y t y u u z.S M < @ X w g.B.A.k.8 ) W e V.a.g.k : F x u c z.J.H p   M U.u c ",
"J.I.H H z.I.a n T.8Xu ; l.G.M.S.C.S.F.# q y.n.v.d.k.j.9 K.K.I.N 0 1   n H 9XE.D ",
"M H Y.Y.I.U.L.S z.S 9 N.B.b.Z.H.N.B.D.S.C.f.u.g.n.b.v.p.> P.K.  t p N 8XI.a z.1 ",
"S 2 t A D A L.n t 9 Z.D.G.F.A.n.D.M.A.c.v.b.f.d.d.s.m.p.l w   x H I.I.A T.T.@ y ",
"1     @ y M N v < 9 g.T J I ! J U I U ( L ( K Y K U I z h.; u x 0 p c u M L.x a ",
"    y y U.c v p # %.$.' _ _ P U ' [ ) I L Y Y L L ` Q R $.d $ F T.I.u < < M y u ",
"F y < S L.z.1 F e Y _ Y { ] 6     * : * O 8 > ; 3 T L ( ) U $ Y.W.9XD U.z.K.E.x ",
"8XI.A c U.z.@ 0 # h 3 . % # ^.w.e.7.r.w.e.e.q./.).. . X   - : D z.F A E.I.u a 1 ",
"F Y.8XL.H L.x   & $ (.).=X0.5X<X<X2X:X;X;X|.XX(.+X  aXpX+ OX. + v A   t 1   < a ",
"A M z.H H D a   +X|./.e.oX]./._.@XwX%X*X-X=X.X1X& yXaXpXiX& }.  x     u A @ @ 1 ",
"a c M F t u E.  1X|.[.`.>X>X>X4X=X5X>X@X4X4X_.@X% aXuXpXaX. 7.o D z.c A T.y y L.",
"F x 0 M n n M - eX.Xw.wX3X$X:X.X}. X XeX^.4X7X+X. pXuXpXO . t.  T.Y.H J.N D L.U.",
"  @ @ < t z.F   0X@X5X|.;X`.>X@X6X2X1X=X.X.X=X*X. yXaXiXaX# }.  L.S a F a M M n ",
"      p J.y 0 A % 1X).]. X;X2X1X3X$X@X=X;X-X=XtX. pXyXpXyX. . y M S n K.z.a H H ",
"  1 u z.N x t H   wX3X2X@X2X2X2X=X.X<X2X=X#X3X%X0X  aXpX  _.: v D 8XY.H F S D A ",
"A v A c n N < F - %X6X3X3X+X6X2X).<X.X}.,X X X,X1XqX# $ `.OX  @ v F u x y c S I.",
"8Xz.D N I.E.a a r & +X).>X>X).>X-X!.6XqXtX3X_.<X X'./.|.^.% m L.D M p U.Y.A   x ",
"J.K.a N v L.S 0 n . rXXXXX/.5X=X4X6X+XXX(.3X&XwX!.[.r.+XQ.. m U.K.a F D L.p y L.",
"M Y.U.n   D 9Xp n F % 5X^.5X}._._.>X>XwX(.{.9.8.q.~.3 # 5 < a K.v x H n D L.K.p ",
"I.D J.H H J.T.x v F F . wXOX3X-X<X,X].;X|.'.0.XX[.'.w.. v A I.n M p J.M x N @ 1 ",
"A Y.D @ u F D K.S I.A u   . rX*X=X X].0.[.w.[./.Q.. . F 1 D U.T.T.v S N M z.F z.",
"t 1 U.U.t J.8XH J.8XK.M   t . . # ).#Xt.w.#X# $ . 0 @ y p p F J.N 1 A F n D J.J.",
"M 1 a 9Xu N T.I.H y I.T.A 1 % V V & # : # # Z j . D Y.E.x y v < @ t u 8XI.c H D ",
"T.F @ A u 1 0 v J.D N D x a # =.1.# $ B &.....~ 6 z.c a u M N y < N a H J.J.i 0 ",
"M v @ t c     t 8XE.K.S @ * ,.4.$ 6.| 5 h ~ T *.b X D n u S 8XT.U.x y < a J.i < ",
"M v u   < 0 c   t   a F x 4 >.| # :. .~ $ Z *. .X.. U.N   t H T.z.1   t v z.y S ",
"U.H c u v n p v u   < u 2 $ =.@.$ &.5.o.C   ^ ..j X K.z.M N L.T.y @ 0 T.T.Y.Y.H ",
"t 0 p U.S x @ T.n y         4.+.,.$ :.>.h X 3.g f X K.S 0 y v N n x @ n L.v x y ",
"F y <   @ u y L.I.S < y A = <.-.^ &.$ -.s X 6 g +.  t 0 < < t @ U.D 0 v v @ @ 1 ",
"T.F F a y p x < n < F 8XL.% @.5.,.h o.o Q E K X *.o < 0 t v t u u L.Y.H J.D M c ",
"z.x I.< x S u   0 N H W.1 3.#.O.;.<. .  ] ' P X 2.b . R.S c S   L.8XD v I.L.N E.",
"t S 9Xa I.9XI.J.n x N x o # 1.4.>.O.} C $ 3 $ C B $ $ M F x M F < S v N p v c H ",
"x S J.1 a F J.p c D F x y       X X X X X   O > ; O u u L.t @ K.p M 1 p < y < y ",
"N z.v v u t I.N a v L.A L.9 x.Z.F.F.M.d.Z.a.u.i.l w 0 @ F c t < 0 0 F Y.t   @ @ ",
"L.n M 9XY.z.J.N @ 1 M I.8 ; ; O   X 7 O O , O @ < X X c H W.x @   @ S J.S J.J.v "
};
