/* XPM */
static char *cbabd93b5ed34233a0038a323711ed54Ib3ED9RWdsdMUB4G[] = {
/* columns rows colors chars-per-pixel */
"40 40 33 1 ",
"  c #030305",
". c #0B0B0D",
"X c #111113",
"o c #17171A",
"O c #1C1D20",
"+ c #222225",
"@ c #28292C",
"# c #2E2F32",
"$ c #333438",
"% c #393A3E",
"& c #3F4044",
"* c #454549",
"= c #494A4E",
"- c #4E4F53",
"; c #535458",
": c #595A5E",
"> c #5F6064",
", c #646569",
"< c #6A6A6E",
"1 c #6F6F73",
"2 c #747679",
"3 c #7B7C80",
"4 c #808185",
"5 c #848489",
"6 c #8A8C8F",
"7 c #929396",
"8 c #989A9D",
"9 c #9FA0A4",
"0 c #A7A8AC",
"q c #B2B2B6",
"w c #B9BABE",
"e c #C4C5C8",
"r c #DBDCDF",
/* pixels */
"36<6q&.o&X@;O&o;8w3;1=%@254X246,2-+<.X+%",
"-w21*X6*X.9&O0e<=68*e0rw5-.$*<>o%..XX X*",
":&4&+*,Oo%o;e67r6:%&+:<>>7O  X>6$   .,*2",
"@O%+3er6+=,84;=;357=1=O38w<  .=*+O.*$.+:",
"%+97X;33&+#=15:,%,74e6.<3695+.X&>0%1;@X%",
"8+@+@##3,;X.O+@*-=o321=-4171&#*342$ ;8#*",
"472237%-0e#&,711=&=--<81@*82557:Oo -2rq<",
";299786,3,:9q980-O.&1=<8$ $>e65 +$:e7%3o",
",o+><>6-+1.>--,39;:%o $$*:.X;$ &277>00.@",
"o  .@;:=XOo X. -,<$1-  X;q:7w7#&O$*#;6&%",
"  @@8*=$$r5X $+X,319,X.;:7-<4=O107#XX;@#",
"1@X,63o1X&r7+8=#*4+=8,eq8$3+7:%9wr<835q&",
"e7>*83.O.Ooo67077&#+.=305o31OO$<31>q7#%o",
"19e626&.$-4#-%867689o#O,0129&#13=> +o X%",
">;322<%97:w756669q73%=#.46<;&9w9&  #>..o",
"%*;1+#q5857803>&=1Oo&@&+<3;5979$<3*>0@@6",
"1&O;--;;-<,&55,@-3,=$1#-2=<>63690924:<68",
" ..X+31-#;=O#%@.o>%@6e-97>>3#=$*6,%1%;;-",
"   $4@O>q..#$-52%4#3<+34:=>5w#*@;,-53%22",
" o#3:&+23*   *33@#*;O+*O30*13*2=<e921,<>",
">=>*-:X13o+%.O,q*>O*+    ;@*oX>.=1#&@*,7",
"e3<:7q%%O-;6r3125X *#..X. XX o-6<;$89> &",
"45%:=6,O-92O=708>Ooo6,23*5*Oo%-85%1<6$@6",
";98- <r$-1;O $*3>=&<2-::-r67qX%5=&2-<65$",
"7<42240&=11%@:,;re#o-@**@-05=>7-;$4;&:.o",
">9<.#1<5,7>#o&723q,&o@<3O&81o<800=,:;313",
"+o88+4e24e5; +;e@+O$  O= O.@$$14:o>1-<44",
";o%r#:072@70>o#-$;,o+$&+.<9q&@=X.+#e7*2<",
"01.>#oO=4<:<&%O*err8:ew3,3*%#;:@X:%244#O",
";=.+*  +eq5,.3,o*5954:1-@6<-#,e08&@X%4#X",
";=# XO* + %1&==. OX+o725%@8: +203o +=3@,",
"82*#=-$=# X#O.@  o;1@10;.:53;:60@.O00992",
"+O$8,&.0-@   o   X#+o=5>X@5,O@=:-&.-6=&@",
"1@X .#@67,X@><1*X1o *2+O1>+OXX+.8<O==..o",
"011%@$&X-X1e6=1;@4o.&#&@1#XO+=+##6924<;*",
"3&7X&,# O:2w9:00&+ Xq3o.. 60,*, 6e<=76:q",
"+,r%7r74-&:&O+X9r,X.O27e50:;1&;1X,=:$=*2",
"&,4o%14$*<1&@o.#1=-5*;53;@##6+.5$;o$X@X@",
":3==#+7:%=6>6-@.o;+*X&X   O.1*+XOO19+ ..",
"6-;r934:.o;75X3q;;@  .o. .2*2w&. .,4,44="
};
