/* XPM */
static char *_d740916e86b4e76f1c1c0592be9a70cuJAXpmMCyk7FvVaj[] = {
/* columns rows colors chars-per-pixel */
"40 40 131 2 ",
"   c #010101",
".  c #0B0601",
"X  c #070708",
"o  c #0B0B0C",
"O  c #0F0F10",
"+  c #131313",
"@  c #171719",
"#  c #1B1B1B",
"$  c #211304",
"%  c #2D1C08",
"&  c #1E231E",
"*  c #39240E",
"=  c #23201D",
"-  c #29211C",
";  c #1C1D20",
":  c #1F2023",
">  c #232325",
",  c #212925",
"<  c #292822",
"1  c #262628",
"2  c #27282A",
"3  c #2B2B2C",
"4  c #302422",
"5  c #3A2722",
"6  c #322A24",
"7  c #3B2E25",
"8  c #283026",
"9  c #2C342B",
"0  c #3B332B",
"q  c #2E2F32",
"w  c #2A3736",
"e  c #2F3D32",
"r  c #323233",
"t  c #363C35",
"y  c #3F3F36",
"u  c #343539",
"i  c #3D373E",
"p  c #373838",
"a  c #3A3B3D",
"s  c #45352B",
"d  c #4F3634",
"f  c #423A33",
"g  c #4D3D31",
"h  c #5A3E33",
"j  c #3B443D",
"k  c #3D4C3F",
"l  c #4C463F",
"z  c #524238",
"x  c #5F4C3E",
"c  c #6B523D",
"v  c #3E3E41",
"b  c #3F4044",
"n  c #3F5042",
"m  c #414444",
"M  c #484547",
"N  c #454549",
"B  c #494648",
"V  c #4A4C4C",
"C  c #594640",
"Z  c #435545",
"A  c #485C4B",
"S  c #50504E",
"D  c #4E4F53",
"F  c #4E5150",
"G  c #525555",
"H  c #5C5150",
"J  c #5F5850",
"K  c #535458",
"L  c #565858",
"P  c #5A5C5D",
"I  c #6A4340",
"U  c #60564A",
"Y  c #6C544B",
"T  c #655A4F",
"R  c #725B4C",
"E  c #625F5B",
"W  c #735857",
"Q  c #4F6553",
"!  c #586D5C",
"~  c #696055",
"^  c #766C59",
"/  c #5C5D61",
"(  c #526364",
")  c #5F6064",
"_  c #616363",
"`  c #666867",
"'  c #6E6A62",
"]  c #646569",
"[  c #6A6A6D",
"{  c #746E67",
"}  c #70706F",
"|  c #6F6F73",
" . c #687070",
".. c #737574",
"X. c #787776",
"o. c #747679",
"O. c #757879",
"+. c #797A7C",
"@. c #805255",
"#. c #8E5C5F",
"$. c #807265",
"%. c #847B63",
"&. c #927162",
"*. c #8A8271",
"=. c #9A8F75",
"-. c #7C7E80",
";. c #7E8283",
":. c #808285",
">. c #888684",
",. c #8A8987",
"<. c #848489",
"1. c #86898A",
"2. c #8B8C8E",
"3. c #91908E",
"4. c #898E90",
"5. c #929395",
"6. c #999795",
"7. c #969A9C",
"8. c #989A9D",
"9. c #AA9F81",
"0. c #9C9EA0",
"q. c #9FA1A4",
"w. c #A5A7A9",
"e. c #A6AAAD",
"r. c #A9A9AD",
"t. c gray70",
"y. c #B2B2B6",
"u. c #B9BABE",
"i. c #C4C5C8",
"p. c #D8D9DC",
"a. c #DBDCDF",
/* pixels */
"-.2.[ 2.y.b o @ b + 2 K ; 1 X         X r > # + r a p X r p a / o.D > [ o + > a ",
"D u.o.| N + 2.N + o q.b + # X t.;.S V p                       o u o o + +   + N ",
"P b :.b > N ] ; @ a @ K @   >.P L G V p > o P P P L K K ` :.  X #       o ] N o.",
"2 ; a > -.i.a.2.> V ] 8.o 7.P j P m o < } [ ` X._ m m m G _ `     + o N u o > P ",
"a > q.5.+ K -.-.b > q b o _ L + 3 ..:.+.+.m 3 > a V m V m r S `   [ a | K 2 + a ",
"8.> 2 > 2 q q -.] G O     3 m K 3.+.K 6 - 0 g z S 3 # 3 l g - j X V u   K 7.q N ",
":.5.o.o.-.5.a D e.0.    S p 4.-.V 3 # - 7 7 6 7 < w 9 + + s s M + @   D ..p.r.[ ",
"K o.q.q.5.8.2.] P o   } `  .V 3 # # 0 6 = r B S j w , 3 i > >   # u P i.2.a +.@ ",
"] @ > ) [ ) 2.u X   } _ S > > > # 6 < 6 0 E S V B + 3 p r # r   # [ 5.) w.e.o 2 ",
"@     o 2 K a +   ..K 3 3 r 6 4 5 > 3 > < V S V t > > > ' %.=.'   o > 1 K 2.b a ",
"    2 2 8.q +   S r p B m 7 I I I + V P a & j j A e & 8 9 *.9.=.J J X o + K 2 q ",
"| 2 + ] 2.3   [ [ [ p r > = 4 4 4 # > 3 > # o & Q Q Z Q Z y ^ =.0 ~   a o.<.y.b ",
"i.5.) N 8.m   P :.-.+...-.-.:.1.:.-.;.-.T x z y e Q n j t < S ^ 4 U . m :.q a @ ",
"| q.i.4.o.2.;   G 4...a ;.1.0.0.....+.q.*.C s 7 8 A 9 < & V 3 h 7 U   o +   + a ",
") K -.o.o.[ #   S w.7.V ..w.e.-.p  .:.q.3.T = 4 9 Z 8 & V ` = 5 5 { % $ + X o @ ",
"a N K | > q G   -.+.q.L p 5.e.-.< _ 7.w.3.' > 6 9 Z 9 = S y } 6 4 ,.$.*   o 2 2.",
"| b ; K D D 1   6._ q.P r 4.e.-.- J 5.w.q.+.< 6 9 n = V z 6 0.y f +.X p D / 2.8.",
"  o o + > -.p   5._ e.;.p ;.e.-.- x 3.w.w.;.> 4 9 k # G J p 7.r < 2.  r a K K D ",
"      u :.2 o   5._ e.7.m K q.-.- Y 6.w.w.-.> 4 9 Z & K J p   @ u m u [ +.a o.o.",
"  @ q -.P b # >   [ 1.0.m m 7.;.4 Y 6.e.5.[ < 6 & j & P B   v N [ i.q.o.| ] [ ) ",
") V ) N D P + m   [ +.0.m m 7.5.a z 6.0...a V V & j 3 _ j   / o V | q b X.v a 5.",
"i.-.[ P 5.y.a >   [ +.q.V m 7.7.m g 6.7. .r K ` 3 8 G [ p   V 2.[ K u 9 k 3   2 ",
":.<.a P V 2.] +   ..+.e._ m 7.7.m H 0.7. .r P 4.S & G _ 4 X V 8.<.a | p ! G     ",
"K q.8.D   [ a.;   2.-.e...3 1.0.m _ e.7. .r _ 7.K j -.` 6   u <.V b m , P     X ",
"5.[ :.o.o.:.e.1     P 5.X.- X.7.m _ e.7.[ a ` q.P m 4.L E X 2.D m k & 6       @ ",
") q.[ o q | [ -.v   G -.J - T 5.m _ w.4.` 0 P 0.P m  .S _ X 5.Z A Q k +   @ ] -.",
"> @ 8.8.> :.i.o.L   F X.C - x -.m S 1.} T - K ;.m m  .l p o G A Q A n 9 m + :.:.",
"K @ a a.q P e.[ K   B H c - f J j j [ E z - G  .j j T s 4 H 3 Z j j k j k o N [ ",
"e.| o ) q O _ n Z j < 0 g - 7 z r r p - z - V  .m m x 7 # d W 0 < 9 j n 8 X o ; ",
"K V o > 3   +.Z ! Q n , 3 + - 4 4 s R 7 6 + f _ 3 3 0 9 e 0 Y C C a 9 e e   X + ",
"K V q   X     t Q e e 8 0 5 5 x R &.^ 4 , m 6 t e & 9 A e 9 f V t V H x & S X ] ",
"8.o.N q > o V 9 e , 3 C c I d h - 6 4 t  .V t e A n A j 9 ^ t w 3 r s d x Y ' K ",
"> : ..*.^ + m j , w w 4 s 7 - 6 e m V y V > e n k k n , l E  .( < o # C R Y 0   ",
"[ X.^ =.%.T t & , 9 3 > - + < y A 9 3 # > + & e e e j a l l K ( 3 j Y x 6 L `   ",
"X ' %.R c c - 5 , # B H g + o & 8 3 > 4 6 d d 5 + K     0 g 4 0 0   r l   X     ",
"  ..^ z 6 6 5 C [ > B i = # ;.1.& i i 4 @.#.#.d f G     s x g 6                 ",
"    E E     P H   O.M P         X +.+ h #.@.@.4 + o.# v N f         # r o o r L ",
"                                    } d I Y #.W l   + q ..        > + q o # + 2 ",
"  X 1 2 X   q #     o r V 2 + X X     [ 5 z z H     o o ] >   o + # | q.>   o o ",
"a > G a.P a _ N X o 3 5.<.+ -.y.v @                 D N o.y.# o   o ] :.] :.:.V "
};
